<svg width="400" height="200" viewBox="0 0 400 200" fill="none" xmlns="http://www.w3.org/2000/svg">
<rect width="400" height="200" fill="#EE3C4C"/>
<g filter="url(#filter0_d)">
<path d="M200 28C160.305 28 128 60.3046 128 100C128 139.695 160.305 172 200 172C239.696 172 272 139.695 272 100C272 60.3046 239.696 28 200 28ZM194.415 40.5273C194.535 40.5081 194.663 40.5464 194.783 40.5273V93.7391H180.689C178.957 78.5717 170.506 65.3245 158.261 57.0289C167.812 47.956 180.373 41.913 194.415 40.5273ZM205.217 40.5217C219.403 41.8397 232.107 47.8739 241.739 57.0251C229.494 65.3215 221.043 78.5701 219.311 93.7391H205.217V40.5217ZM150.406 63.4783C160.653 70.1758 167.923 81.0242 169.739 93.7391H139.478C140.547 82.5752 144.416 72.2283 150.406 63.4783ZM249.594 63.4783C255.584 72.2281 259.453 82.5752 260.522 93.7391H230.261C232.077 81.0242 239.347 70.1758 249.594 63.4783ZM139.478 106.261H169.739C167.938 118.979 160.675 129.828 150.406 136.522C144.402 127.772 140.538 117.429 139.478 106.261ZM180.712 109.391H194.783V162.609C180.59 161.289 167.884 155.238 158.261 146.064C170.514 137.773 178.99 124.572 180.712 109.391ZM205.217 109.391H219.288C221.01 124.572 229.486 137.773 241.739 146.064C232.116 155.238 219.41 161.289 205.217 162.609V109.391ZM230.261 106.261H260.522C259.462 117.429 255.598 127.772 249.594 136.522C239.325 129.828 232.062 118.979 230.261 106.261Z" fill="white"/>
</g>
<defs>
<filter id="filter0_d" x="124" y="28" width="152" height="152" filterUnits="userSpaceOnUse" color-interpolation-filters="sRGB">
<feFlood flood-opacity="0" result="BackgroundImageFix"/>
<feColorMatrix in="SourceAlpha" type="matrix" values="0 0 0 0 0 0 0 0 0 0 0 0 0 0 0 0 0 0 127 0"/>
<feOffset dy="4"/>
<feGaussianBlur stdDeviation="2"/>
<feColorMatrix type="matrix" values="0 0 0 0 0 0 0 0 0 0 0 0 0 0 0 0 0 0 0.25 0"/>
<feBlend mode="normal" in2="BackgroundImageFix" result="effect1_dropShadow"/>
<feBlend mode="normal" in="SourceGraphic" in2="effect1_dropShadow" result="shape"/>
</filter>
</defs>
</svg>
