<svg width="400" height="200" viewBox="0 0 400 200" fill="none" xmlns="http://www.w3.org/2000/svg">
<rect width="400" height="200" fill="#75A4FF" fill-opacity="0.5"/>
<g filter="url(#filter0_d)">
<path d="M241.947 59.7829H133.774V34.8711C133.774 34.6733 133.916 34.5129 134.091 34.5129H166.945V47.8969C166.945 49.6952 168.237 51.1533 169.832 51.1533C171.426 51.1533 172.719 49.6952 172.719 47.8969V34.5129H208.661C210.255 34.5129 211.548 33.0548 211.548 31.2564C211.548 29.4581 210.255 28 208.661 28H134.063C130.71 28.0179 128 31.0891 128 34.8711V165.129C128 168.924 130.727 172 134.091 172H158.659C160.253 172 161.546 170.542 161.546 168.744C161.546 166.945 160.253 165.487 158.659 165.487H134.063C133.898 165.47 133.773 165.315 133.774 165.129V111.365H207.795C209.389 111.365 210.682 109.907 210.682 108.109C210.682 106.31 209.389 104.852 207.795 104.852H175.115V81.7639C175.115 79.9655 173.822 78.5075 172.228 78.5075H152.019C150.425 78.5075 149.132 79.9655 149.132 81.7639C149.132 83.5623 150.425 85.0204 152.019 85.0204H169.341V104.885H133.774V66.2958H200.895V87.365C200.895 89.1634 202.188 90.6214 203.782 90.6214C205.376 90.6214 206.669 89.1634 206.669 87.365V66.2958H239.06V130.187C239.06 131.986 240.353 133.444 241.947 133.444C243.541 133.444 244.834 131.986 244.834 130.187V63.0393C244.834 61.241 243.541 59.7829 241.947 59.7829Z" fill="#D80027"/>
<path d="M265.937 28H233.575C231.981 28 230.688 29.4581 230.688 31.2564C230.688 33.0548 231.981 34.5129 233.575 34.5129H265.937C266.113 34.5129 266.255 34.6733 266.255 34.8711V165.129C266.255 165.327 266.113 165.487 265.937 165.487H185.305V133.444H192.811C194.406 133.444 195.698 131.986 195.698 130.187C195.698 128.389 194.406 126.931 192.811 126.931H157.447C155.852 126.931 154.56 128.389 154.56 130.187C154.56 131.986 155.852 133.444 157.447 133.444H179.532V168.744C179.532 170.542 180.824 172 182.419 172H265.937C269.29 171.982 272 168.911 272 165.129V34.8711C272 31.0891 269.29 28.0179 265.937 28Z" fill="#D80027"/>
<path d="M224.885 86.9742C223.291 86.9742 221.998 88.4323 221.998 90.2307H221.883V142.953H197.113C195.519 142.953 194.226 144.411 194.226 146.209C194.226 148.007 195.519 149.465 197.113 149.465H224.885C226.48 149.465 227.772 148.007 227.772 146.209V90.2307C227.772 88.4323 226.48 86.9742 224.885 86.9742Z" fill="#D80027"/>
</g>
<defs>
<filter id="filter0_d" x="124" y="28" width="152" height="152" filterUnits="userSpaceOnUse" color-interpolation-filters="sRGB">
<feFlood flood-opacity="0" result="BackgroundImageFix"/>
<feColorMatrix in="SourceAlpha" type="matrix" values="0 0 0 0 0 0 0 0 0 0 0 0 0 0 0 0 0 0 127 0"/>
<feOffset dy="4"/>
<feGaussianBlur stdDeviation="2"/>
<feColorMatrix type="matrix" values="0 0 0 0 0 0 0 0 0 0 0 0 0 0 0 0 0 0 0.25 0"/>
<feBlend mode="normal" in2="BackgroundImageFix" result="effect1_dropShadow"/>
<feBlend mode="normal" in="SourceGraphic" in2="effect1_dropShadow" result="shape"/>
</filter>
</defs>
</svg>
