<svg width="400" height="200" viewBox="0 0 400 200" fill="none" xmlns="http://www.w3.org/2000/svg">
<rect width="400" height="200" fill="#4B2E83" fill-opacity="0.64"/>
<g filter="url(#filter0_d)">
<path d="M214.745 28C184.22 28 159.301 48.7677 157.691 74.8444C139.871 81.0903 128 96.1429 128 112.882C128.34 125.208 134.185 136.581 143.665 143.362V169.657C143.665 170.951 144.63 172 145.82 172C146.364 172 146.887 171.777 147.286 171.375L165.739 153.012C168.912 153.577 172.123 153.859 175.339 153.855C195.459 153.855 213.164 142.987 219.89 126.685C222.132 126.498 224.374 126.248 226.616 125.842L249.265 148.359C250.138 149.238 251.502 149.182 252.311 148.234C252.681 147.801 252.886 147.232 252.886 146.641V114.35C265.044 104.981 272 91.5834 272 77.4677C271.971 50.2042 246.304 28 214.745 28ZM175.339 149.171C172.023 149.175 168.713 148.851 165.451 148.203C164.791 148.068 164.111 148.276 163.612 148.765L148.005 164.38V142.113C148.003 141.336 147.648 140.612 147.056 140.177C137.629 133.275 132.311 123.219 132.311 112.851C132.311 98.6101 142.343 85.6498 157.547 79.7786C157.695 81.8866 158.012 83.9767 158.496 86.0246C160.616 95.5289 165.457 104.058 172.321 110.384C172.723 110.79 187.325 126.404 215.061 126.779C208.364 140.364 192.901 149.171 175.339 149.171ZM249.495 111.196C248.903 111.63 248.548 112.355 248.546 113.132V141.238L228.714 121.533C228.315 121.131 227.791 120.908 227.248 120.908H226.846C223.054 121.674 219.205 122.06 215.349 122.064C194.481 122.064 181.863 113.257 175.684 107.604C169.385 101.677 164.811 93.8858 162.52 85.1814C161.963 82.6119 161.673 79.9824 161.657 77.3427C161.83 52.7963 185.571 32.6532 214.745 32.6532C243.919 32.6532 267.66 52.7338 267.66 77.4364C267.66 90.3655 261.049 102.67 249.495 111.196Z" fill="white"/>
</g>
<defs>
<filter id="filter0_d" x="124" y="28" width="152" height="152" filterUnits="userSpaceOnUse" color-interpolation-filters="sRGB">
<feFlood flood-opacity="0" result="BackgroundImageFix"/>
<feColorMatrix in="SourceAlpha" type="matrix" values="0 0 0 0 0 0 0 0 0 0 0 0 0 0 0 0 0 0 127 0"/>
<feOffset dy="4"/>
<feGaussianBlur stdDeviation="2"/>
<feColorMatrix type="matrix" values="0 0 0 0 0 0 0 0 0 0 0 0 0 0 0 0 0 0 0.25 0"/>
<feBlend mode="normal" in2="BackgroundImageFix" result="effect1_dropShadow"/>
<feBlend mode="normal" in="SourceGraphic" in2="effect1_dropShadow" result="shape"/>
</filter>
</defs>
</svg>
