<svg width="400" height="200" viewBox="0 0 400 200" fill="none" xmlns="http://www.w3.org/2000/svg">
<rect width="400" height="200" fill="#0090F5"/>
<g filter="url(#filter0_d)">
<path d="M230.244 122.345L212.865 104.964L204.966 112.863L222.345 130.244L230.244 122.345Z" fill="#959CB3"/>
<path d="M204.965 112.866L222.344 130.245L225.168 127.421L214.768 117.02C216.513 115.378 218.186 113.662 219.692 111.795L212.864 104.966L204.965 112.866Z" fill="#7F8499"/>
<path d="M224.317 122.247C224.317 122.248 224.317 122.248 224.317 122.248L222.246 124.318C219.046 127.517 219.046 133.097 222.246 136.292L255.47 169.517C257.07 171.119 259.199 172 261.461 172C263.725 172 265.854 171.118 267.454 169.518L269.52 167.454C271.12 165.855 272 163.728 272 161.466C272 159.205 271.12 157.079 269.52 155.48L236.289 122.247C232.99 118.948 227.617 118.948 224.317 122.247Z" fill="#5B5D6E"/>
<path d="M268.408 165.052C266.146 165.052 264.017 164.171 262.417 162.57L229.194 129.345C226.84 126.994 226.233 123.358 227.342 120.324C226.24 120.735 225.201 121.363 224.317 122.247C224.317 122.248 224.317 122.248 224.317 122.248L222.246 124.319C219.046 127.517 219.046 133.097 222.246 136.293L255.47 169.517C257.07 171.119 259.199 172 261.461 172C263.725 172 265.854 171.119 267.454 169.518L269.52 167.454C270.378 166.596 271.01 165.58 271.429 164.48C270.475 164.844 269.46 165.052 268.408 165.052Z" fill="#464655"/>
<path d="M177.654 28C150.231 28 128 50.232 128 77.6564C128 105.081 150.231 127.313 177.654 127.313C205.077 127.313 227.307 105.081 227.307 77.6564C227.307 50.232 205.077 28 177.654 28ZM177.654 117.382C155.715 117.382 137.931 99.5958 137.931 77.6564C137.931 55.7169 155.715 37.9314 177.654 37.9314C199.592 37.9314 217.377 55.7169 217.377 77.6564C217.377 99.5958 199.592 117.382 177.654 117.382Z" fill="#5B5D6E"/>
<path d="M177.654 32.9658C152.973 32.9658 132.966 52.9746 132.966 77.6564C132.966 102.338 152.973 122.347 177.654 122.347C202.334 122.347 222.342 102.338 222.342 77.6564C222.342 52.9741 202.335 32.9658 177.654 32.9658ZM177.654 117.382C155.716 117.382 137.931 99.5959 137.931 77.6564C137.931 55.7169 155.716 37.9315 177.654 37.9315C199.592 37.9315 217.377 55.7169 217.377 77.6564C217.377 99.5959 199.592 117.382 177.654 117.382Z" fill="#707487"/>
<path d="M177.654 107.45C194.108 107.45 207.446 94.1105 207.446 77.6558C207.446 61.2012 194.108 47.8621 177.654 47.8621C161.2 47.8621 147.862 61.2012 147.862 77.6558C147.862 94.1105 161.2 107.45 177.654 107.45Z" fill="#00D2FF"/>
<path d="M189.571 68.7178C192.861 68.7178 195.529 66.0499 195.529 62.7589C195.529 59.4679 192.861 56.8 189.571 56.8C186.28 56.8 183.612 59.4679 183.612 62.7589C183.612 66.0499 186.28 68.7178 189.571 68.7178Z" fill="#8CE6FF"/>
<path d="M168.716 77.6563C168.716 61.9199 173.599 49.065 179.782 47.9697C179.076 47.9197 178.372 47.8623 177.654 47.8623C161.2 47.8623 147.862 61.2013 147.862 77.6561C147.862 94.1106 161.2 107.45 177.654 107.45C178.372 107.45 179.076 107.392 179.782 107.342C173.599 106.247 168.716 93.3925 168.716 77.6563Z" fill="#18BDF6"/>
<g filter="url(#filter1_d)">
<path d="M190.272 50.6958C186.436 48.8971 182.171 47.8626 177.654 47.8626C173.137 47.8626 168.871 48.8971 165.036 50.6958C160.944 56.5331 158.248 65.1983 157.862 75.1737H147.987C147.919 75.9947 147.862 76.8182 147.862 77.6564C147.862 78.4945 147.919 79.3184 147.987 80.1391H157.862C158.248 90.1144 160.945 98.779 165.036 104.617C168.872 106.416 173.137 107.45 177.654 107.45C182.171 107.45 186.437 106.416 190.273 104.617C194.364 98.7793 197.06 90.1144 197.447 80.1391H207.322C207.39 79.3181 207.447 78.4945 207.447 77.6564C207.447 76.8182 207.39 75.9944 207.322 75.1737H197.447C197.059 65.1983 194.363 56.5331 190.272 50.6958ZM175.171 106.982C168.632 104.677 163.406 93.5191 162.823 80.1391H175.171V106.982ZM175.171 75.1737H162.823C163.406 61.7939 168.632 50.6362 175.171 48.3304V75.1737ZM180.137 106.982V80.1391H192.485C191.901 93.5188 186.676 104.677 180.137 106.982ZM180.137 75.1737V48.3304C186.676 50.6362 191.902 61.7936 192.485 75.1737H180.137Z" fill="#EFF2FA"/>
</g>
<path d="M175.171 104.085V106.982C168.632 104.677 163.406 93.5191 162.823 80.1391H168.764C168.737 79.3189 168.716 78.4942 168.716 77.6563C168.716 76.8185 168.737 75.9938 168.764 75.1736H162.823C163.406 61.7939 168.632 50.6361 175.171 48.3303V51.2282C176.56 49.4346 178.103 48.285 179.744 47.9813C179.05 47.9315 178.361 47.8623 177.654 47.8623C176.555 47.8623 175.472 47.9284 174.406 48.0471C174.219 48.0673 174.04 48.1076 173.854 48.1312C172.949 48.2493 172.051 48.3916 171.174 48.5902C171.064 48.6147 170.958 48.6482 170.849 48.674C169.887 48.903 168.939 49.1682 168.016 49.4874C167.991 49.4959 167.967 49.5057 167.943 49.5142C166.95 49.8598 165.98 50.2533 165.038 50.6958L165.037 50.6963C160.945 56.5337 158.249 65.1986 157.862 75.1739H147.987C147.919 75.9949 147.862 76.8185 147.862 77.6566C147.862 78.4948 147.919 79.3186 147.987 80.1394H157.862C158.249 90.1147 160.945 98.7796 165.036 104.617C165.98 105.059 166.951 105.453 167.944 105.799C167.968 105.808 167.991 105.817 168.015 105.826C168.94 106.145 169.89 106.411 170.853 106.64C170.961 106.665 171.065 106.698 171.173 106.722C172.051 106.921 172.949 107.063 173.855 107.182C174.04 107.205 174.22 107.246 174.407 107.266C175.473 107.384 176.556 107.45 177.655 107.45C178.362 107.45 179.051 107.381 179.745 107.331C178.103 107.028 176.56 105.878 175.171 104.085Z" fill="#D7DEED"/>
</g>
<defs>
<filter id="filter0_d" x="124" y="28" width="152" height="152" filterUnits="userSpaceOnUse" color-interpolation-filters="sRGB">
<feFlood flood-opacity="0" result="BackgroundImageFix"/>
<feColorMatrix in="SourceAlpha" type="matrix" values="0 0 0 0 0 0 0 0 0 0 0 0 0 0 0 0 0 0 127 0"/>
<feOffset dy="4"/>
<feGaussianBlur stdDeviation="2"/>
<feColorMatrix type="matrix" values="0 0 0 0 0 0 0 0 0 0 0 0 0 0 0 0 0 0 0.25 0"/>
<feBlend mode="normal" in2="BackgroundImageFix" result="effect1_dropShadow"/>
<feBlend mode="normal" in="SourceGraphic" in2="effect1_dropShadow" result="shape"/>
</filter>
<filter id="filter1_d" x="143.862" y="47.8626" width="67.5855" height="67.5875" filterUnits="userSpaceOnUse" color-interpolation-filters="sRGB">
<feFlood flood-opacity="0" result="BackgroundImageFix"/>
<feColorMatrix in="SourceAlpha" type="matrix" values="0 0 0 0 0 0 0 0 0 0 0 0 0 0 0 0 0 0 127 0"/>
<feOffset dy="4"/>
<feGaussianBlur stdDeviation="2"/>
<feColorMatrix type="matrix" values="0 0 0 0 0 0 0 0 0 0 0 0 0 0 0 0 0 0 0.25 0"/>
<feBlend mode="normal" in2="BackgroundImageFix" result="effect1_dropShadow"/>
<feBlend mode="normal" in="SourceGraphic" in2="effect1_dropShadow" result="shape"/>
</filter>
</defs>
</svg>
